<?xml version="1.0" encoding="UTF-8"?>
<svg id="Layer_1" data-name="Layer 1" xmlns="http://www.w3.org/2000/svg" viewBox="0 0 1014 608.4">
  <defs>
    <style>
      .cls-1 {
        fill: #e30674;
      }

      .cls-2 {
        fill: #352f34;
      }

      .cls-3 {
        fill: #fefefe;
      }
    </style>
  </defs>
  <path class="cls-3" d="M0,608.4V0H1014V608.4H0ZM498.73,329.56c-11.26,6.11-22.6,11.13-34.68,14.42-41.05,11.19-79.31,5.53-114.54-18.75-13.05-8.99-30.38-5.33-38.64,7.97-1.18,1.9-1.11,3.06,.6,4.53,15.02,12.98,32.01,22.52,51.02,28.12,29.78,8.77,59.36,7.92,88.37-3.54,18.31-7.24,34.41-17.82,47.88-32.75Zm-133.33-28.06c1.51-.59,3.08-1.06,4.52-1.8,14.41-7.42,29.5-12.7,45.58-15.1,26.24-3.91,51.66-1.5,75.74,10.14,7.46,3.61,14.68,7.83,21.61,12.38,12.06,7.92,27.24,6.26,36.28-4.46,4.58-5.43,4.58-5.51-.72-10.37-.41-.38-.8-.8-1.24-1.14-20.54-16.1-43.6-26.32-69.61-29.49-25.89-3.16-50.7,.76-74.31,11.85-14.38,6.75-26.97,16.05-37.87,28Z"/>
  <path class="cls-2" d="M498.73,329.56c-13.47,14.93-29.57,25.51-47.88,32.75-29.01,11.46-58.58,12.31-88.37,3.54-19.01-5.6-35.99-15.14-51.02-28.12-1.7-1.47-1.78-2.63-.6-4.53,8.26-13.3,25.59-16.96,38.64-7.97,35.24,24.29,73.49,29.95,114.54,18.75,12.08-3.3,23.43-8.32,34.68-14.42Z"/>
  <path class="cls-1" d="M365.4,301.5c10.9-11.95,23.49-21.24,37.87-28,23.61-11.09,48.42-15.01,74.31-11.85,26.01,3.18,49.07,13.39,69.61,29.49,.44,.35,.82,.76,1.24,1.14,5.29,4.87,5.3,4.94,.72,10.37-9.05,10.72-24.23,12.37-36.28,4.46-6.93-4.55-14.15-8.77-21.61-12.38-24.08-11.64-49.5-14.05-75.74-10.14-16.08,2.39-31.18,7.68-45.58,15.1-1.43,.74-3.01,1.21-4.52,1.8Z"/>
</svg>