<?xml version="1.0" encoding="UTF-8"?>
<svg id="Layer_1" data-name="Layer 1" xmlns="http://www.w3.org/2000/svg" viewBox="0 0 720 487">
  <defs>
    <style>
      .cls-1 {
        fill: #fcf5f9;
      }

      .cls-2 {
        fill: #b93277;
      }

      .cls-3 {
        fill: #bc2a72;
      }

      .cls-4 {
        fill: #383636;
      }

      .cls-5 {
        fill: #f5f5f5;
      }

      .cls-6 {
        fill: #342f34;
      }

      .cls-7 {
        fill: #e40774;
      }

      .cls-8 {
        fill: #9a2f65;
      }

      .cls-9 {
        fill: #fefdfd;
      }

      .cls-10 {
        fill: #c42a72;
      }

      .cls-11 {
        fill: #e20974;
      }

      .cls-12 {
        fill: #c52474;
      }

      .cls-13 {
        fill: #bb2e74;
      }

      .cls-14 {
        fill: #363335;
      }

      .cls-15 {
        fill: #d60f73;
      }

      .cls-16 {
        fill: #c22b71;
      }

      .cls-17 {
        fill: #e30774;
      }

      .cls-18 {
        fill: #bc3175;
      }

      .cls-19 {
        fill: #393738;
      }

      .cls-20 {
        fill: #3b3a3a;
      }

      .cls-21 {
        fill: #efefef;
      }

      .cls-22 {
        fill: #e30472;
      }

      .cls-23 {
        fill: #fbeff5;
      }

      .cls-24 {
        fill: #e20975;
      }

      .cls-25 {
        fill: #bf3177;
      }

      .cls-26 {
        fill: #e00b74;
      }

      .cls-27 {
        fill: #e60675;
      }

      .cls-28 {
        fill: #c12a73;
      }

      .cls-29 {
        fill: #e70175;
      }
    </style>
  </defs>
  <path class="cls-9" d="M720,487H0V0H720V487Zm-440.88-183.1c.1-.32,.07-.61-.1-.9,.02-7.79-.02-15.58,.08-23.37,.04-2.88-1.07-4.37-4.04-4.32-5.3,.09-10.61,.1-15.91,.23-2.8,.07-4.33,1.43-3.92,4.43-.11,1.48-.32,2.97-.32,4.45-.02,22.23-.03,44.47,0,66.7,0,1.3,.31,2.61,.48,3.91,1.32,.68,2.61,1.86,3.97,1.94,4.47,.27,8.97,.09,13.46,.18,4.29,.09,6.38-2,6.36-6.22-.05-8.64-.15-17.28-.23-25.92,.41-.79,.82-1.59,1.67-3.23,3.08,5.21,5.74,9.71,8.4,14.21,2.3,4.78,4.85,9.47,6.82,14.38,1.98,4.93,4.88,7.54,10.52,6.83,3.61-.45,7.31-.01,10.97-.16,4.93-.2,5.76-1.28,3.61-5.86-4.87-10.39-10-20.65-15.15-30.9-.8-1.59-2.01-3.25-3.48-4.16-4.21-2.59-3.67-5.38-1.41-9.03,5.33-8.63,10.39-17.43,15.52-26.19,1.5-2.55,2.66-4.98-1.97-5.54-16.74-2.03-19.52-.51-26.22,14.71-.13,.29-.12,.65-.17,.97-.21,.1-.27,.26-.17,.47-.76,1.36-1.52,2.71-2.28,4.07-.23,.52-.47,1.04-.7,1.56l-.05,.23c-1.31,2.17-2.61,4.35-3.92,6.52-.6,0-1.2,0-1.79,0Zm118.98-22.08c.13-.3,.09-.57-.13-.82,.03-3.37-.81-5.77-4.97-5.72-10.6,.13-21.2,.12-31.79,.05-3.31-.02-5.28,1.19-5.87,4.61-.98,5.7-2.12,11.37-3.2,17.05-.55,2.43-1.14,4.86-1.64,7.3-3.08,14.99-6.23,29.97-9.15,44.99-1.38,7.09-.74,7.72,5.96,7.85,3.83,.08,7.67-.07,11.48,.22,4.61,.35,6.53-1.69,7.07-6.15,.71-5.85,1.96-11.63,3.27-19.09,7.1,7.87,15.48,12.38,19.16,21.52,.58,1.44,2.6,3.14,4.06,3.25,5.29,.42,10.64,.19,15.96,.24,3.53,.03,4.8-1.71,4.12-5.08-4.21-20.68-8.42-41.37-12.62-62.05-.1-.65-.19-1.3-.29-1.95-.22-1-.44-2-.66-3-.25-1.07-.51-2.15-.76-3.22Zm-170.2,22.21c-.19-1.01-.38-2.03-.58-3.04-.5-2.31-.99-4.61-1.49-6.92-.33-1.69-.66-3.38-1-5.07-.42-2.79-.91-5.56-1.24-8.36-.47-4-2.45-5.58-6.64-5.46-9.3,.28-18.62,.32-27.91,0-5.44-.19-8.07,1.72-9.05,7.23-2.25,12.58-5.01,25.07-7.56,37.59-1.6,8.23-3.12,16.48-4.81,24.69-2.84,13.82-3.11,12.31,9.98,12.43,13.92,.13,13.92,.07,14.46-14.23,.22-.18,.23-.38,.04-.59-.04-.41-.09-.82-.13-1.23,.33-2.01,.67-4.02,1-6.03,1.15-.25,2.88-1.11,3.36-.65,5.31,5.01,12.13,9.39,15.12,15.6,3.18,6.62,7.03,7.63,12.97,7.24,2.98-.2,5.98-.16,8.97-.07,3.9,.11,5-1.91,4.29-5.36-1.91-9.27-3.85-18.53-5.78-27.79-1.13-5.7-2.26-11.41-3.39-17.11-.21-.96-.42-1.92-.63-2.87Zm436.14-27.87l-24.03-.54c-2.99-.09-5.97-.15-8.96-.28-4.32-.19-6.52,1.61-7.39,6.08-4.15,21.41-8.59,42.76-12.93,64.14-2.69,13.24-2.81,11.51,9.52,11.63,15.66,.14,12.39,1.79,15.38-12.79,.73-3.58,1.43-7.17,2.14-10.75,.49-.06,.98-.11,1.46-.17,5.84,7.59,15.91,11.6,18.1,22.32,.08,.38,1.05,.58,1.6,.87,5.64,.13,11.29,.19,16.93,.42,4.64,.19,5.83-2.05,4.96-6.23-1.39-6.67-2.62-13.38-4-20.06-3.49-16.92-7.02-33.84-10.53-50.76-.23-.75-.47-1.49-.7-2.24,.03-.39-.13-.65-.5-.78-.35-.28-.71-.57-1.06-.85Zm-151.03,118.92c2.37,.29,4.75,.58,7.12,.88v32.91c1.58,.22,2.71,.47,3.84,.51,6.59,.24,6.61,.22,6.7-6.44,.06-4.82,.56-9.7-.09-14.42-.43-3.16-2.47-6.11-3.88-9.11-.68-1.46-1.57-2.82-2.37-4.23,3.95,.04,7.93,.31,11.85,0,1.14-.09,2.15-1.86,3.21-2.85-1.06-.73-2.1-2.06-3.18-2.08-7.25-.18-14.52-.08-21.78-.06-2.69,0-3.54,1.34-2.72,3.84,.43,.36,.85,.72,1.28,1.08Zm-33.08,17.95c0-.69-.02-1.38-.03-2.07,4.56,.45,9.77,6.3,10.07,11.28,.43,7.26,.63,7.45,7.95,7.17,.96-.04,1.92-.18,2.85-.27q.51-13.54-6.32-17.71c5.65-2.95,7.41-7.14,6.21-14.14-.91-5.34-4.84-6.24-9.19-6.62-3.14-.27-6.3-.41-9.44-.61-.69,0-1.37,.02-2.06,.03-1.32-.03-2.67,.08-3.97-.1-4.8-.69-6.86,.85-6.62,6.14,.41,9.26,.36,18.57,.03,27.83-.16,4.47,1.33,6.1,5.62,5.46,.98-.15,1.96-.2,2.95-.3,.58-.38,1.16-.76,1.74-1.13,.07-4.34,.13-8.68,.2-13.02,0-.65,.02-1.3,.03-1.94ZM303.98,47.98c-21.27,9.68-40.28,22.77-57.56,38.43-5.06,3.77-9.52,8.05-12.33,13.77,3.9-1.27,7.48-2.76,10.94-4.51,41.67-21.02,85.78-31.55,132.5-30.53,10.13,.22,20.24,1.41,30.36,2.15,24.17,3.76,47.63,10.09,69.4,21.33,14.76,7.62,28.95,16.4,43.14,25.07,23.32,14.24,53.16,9.11,69.21-12.82,7.41-10.13,6.02-9.6-1.57-16.17-20.84-18.03-44.26-31.88-69.63-42.52-17.87-7.49-36.27-13.17-55.46-16.12-3.14-.62-6.26-1.42-9.44-1.84-30.98-4.06-61.77-3.31-92.33,3.67-19.85,4.53-39.19,10.45-57.23,20.08Zm-76.96,341.95c-2.32,.02-4.71-.26-6.94,.2-1.17,.24-2.95,1.76-2.97,2.72-.2,11.93-.13,23.86-.13,36.12,1.96,.19,3.42,.25,4.86,.48,4.46,.72,6.37-.88,5.93-5.61-.34-3.62-.12-7.31,.14-10.94,.05-.73,1.4-1.37,2.14-2.06,4.44,4.26,9.06,8.36,8.04,15.55-.12,.87,1.54,2.7,2.57,2.88,2.52,.43,5.16,.14,8.55,.14-2.46-6.57,2.83-14.61-6.93-17.7,1.34-.9,2.27-1.34,2.98-2.01,4.22-4.04,3.88-9.4,2.35-13.98-.75-2.26-4.82-3.95-7.72-4.83-3.1-.95-6.58-.65-9.89-.9-.99-.02-1.98-.04-2.97-.06Zm140.3,38.18c-3-2.27-6.97-3.94-8.79-6.93-2.94-4.84-6.35-4.05-10.35-3.12-.92,7.63,.1,10.44,5.12,11.19,4.81,.71,9.79,.27,14.7,.34,2.72-1.19,6.51-1.63,7.97-3.71,4.93-7.01,1.07-16.09-7.21-18.23-2.71-.7-5.46-1.22-8.19-1.82-.85-.64-1.69-1.28-2.54-1.93-.19-3.99-.38-7.99-.58-11.98,2.77,1.97,6.7,3.35,8.06,6.04,2.59,5.12,6.27,4.21,10.26,3.82,2.02-8.12,0-11.33-7.85-11.89-3.94-.28-7.94,.13-11.91,.23-7.5,.7-8.86,2.89-8.02,12.89,.05,.65,.11,1.3,.16,1.94,.52,1.05,1.04,2.11,1.56,3.16,.76,.52,1.52,1.04,2.28,1.56,1.05,.42,2.08,.97,3.17,1.24q11.21,2.73,12.08,14.09c-.02,.34-.04,.68-.06,1.01l.12,2.1Zm30.64-38.02c-1.33-.02-2.65-.04-3.98-.05-6.5-.08-6.55-.08-6.57,6.59-.03,8.13,.01,16.27,.06,24.4,.05,9.18,.41,9.47,9.64,8.04,.15-.02,.28-.17,1.14-.74v-11.9c4.51-.47,8.29-.85,12.07-1.27,4.94-.54,7.21-3.63,7.74-8.27,1.53-13.29-2.19-17.32-15.52-16.85-.83,.03-1.66,.07-2.48,.11-.7-.02-1.4-.04-2.1-.05Zm41.32-.83c-.78,.17-1.56,.43-2.35,.51-7.51,.8-9.26,2.47-9.46,9.97-.18,7.14,0,14.28,0,21.42,0,3.62,1.61,6.55,5.18,6.85,6.54,.56,13.16,.71,19.72,.38,3.73-.18,5.79-3.02,5.82-6.89,.07-8.14,.07-16.27,.14-24.41,.03-3.74-1.82-6.03-5.41-6.62-3.74-.62-7.54-.9-11.32-1.33-.77,.04-1.54,.08-2.31,.12Zm-310.13-52.16c1.03-6.02,1.91-12.08,3.13-18.06,2.4-11.73,5.15-23.39,7.48-35.13,1.65-8.32,1.39-8.44-6.98-8.49-10.78-.07-10.65-.04-12.72,10.55-1.56,7.97-3.51,15.85-5.29,23.78-3.5-9.52-5.92-18.97-8.06-28.49-.93-4.16-2.68-6.43-7.38-5.97-3.79,.37-7.65,0-11.48,.02-8.33,.06-8.41,.05-10.52,8.03-2.33,8.84-4.48,17.73-6.71,26.6-3.27-10.01-5.6-19.99-7.66-30.02-.65-3.19-2.1-4.65-5.34-4.53-4.82,.17-9.65,.19-14.48,.31-2.63,.07-4.08,1.14-3.49,4.07,.36,1.79,.4,3.64,.75,5.44,3.98,20.59,7.95,41.18,12.01,61.75,2.27,11.48,.78,10.13,12.2,10.07,15.22-.08,12.51,2.54,16.23-12.27,.16-.65,.37-1.28,.53-1.93,2.87-11.95,5.75-23.9,8.62-35.85,.85,1.04,2.2,1.97,2.47,3.15,3.09,13.39,5.95,26.83,9.03,40.22,.66,2.88,.59,6.66,5.17,6.66,5.14,0,10.3,.26,15.41-.13,1.46-.11,3.67-1.84,4.01-3.21,1.35-5.45,2.1-11.04,3.07-16.58Zm320.08-32.33c.62,.95,1.36,1.84,1.85,2.86,6.98,14.55,13.99,29.08,20.83,43.69,1.78,3.8,3.85,6.23,8.57,5.88,5.3-.39,10.65-.05,15.98-.07,6.94-.02,7.24-.26,7.26-7.37,.06-21.31,.09-42.62,.07-63.94,0-10.79-.06-10.6-10.87-10.39-4.87,.09-6.94,1.97-6.9,6.8,.08,10.49,0,20.98-.07,31.47-.02,2.73-.23,5.46-.35,8.2-2.15-1.43-3.19-3.07-4.06-4.79-5.89-11.56-11.97-23.04-17.5-34.77-2.35-4.99-5.14-7.67-10.96-7.1-4.95,.48-9.98,.27-14.97,.14-4.33-.11-6.18,1.41-6.14,6.11,.17,21.48-.17,42.96,.05,64.43,.12,11.69-2.31,11.16,11.35,11.16,6.16,0,7.09-.69,6.94-6.9-.37-14.94-1.1-29.86-1.68-44.8,.21-.2,.42-.41,.63-.61Zm37.26-145.35c-.29-.35-.57-.7-.86-1.04-1.9,.72-3.91,1.23-5.69,2.18-23.16,12.54-47.69,21.5-73.37,26.97-63.54,13.53-124.24,6.19-181.24-26.06-10.57-5.98-20.48-13.18-31.21-18.84-22.85-12.04-53.24-2.82-66.58,19.24-2.7,4.46-1.87,6.81,1.8,9.93,22.79,19.36,47.95,34.64,75.67,45.95,41.22,16.81,84.02,22.05,127.94,17.16,55.2-6.15,103.17-28.88,144.31-66.09,3.25-2.94,6.15-6.26,9.21-9.4Zm-175.74,242.27c1.44,2.18,2.41,3.36,3.07,4.71,2.58,5.22,5.04,10.5,7.57,15.75,3.75,7.8,4.81,8.47,13.39,7.2,1.22-.18,3.11-2.04,3.14-3.16,.24-10.82,.11-21.66,.18-32.49,.02-2.95-1.7-4.17-4.07-3.46-1.33,.4-2.98,2.42-3.06,3.79-.34,5.98-.15,11.99-.19,17.98,0,1.16-.24,2.32-.5,4.69-3.74-7.26-7.38-13.1-9.81-19.41-2.43-6.31-6.44-8.01-12.66-7.42-3.07,.29-4.02,1.33-3.98,4.23,.1,6.83,0,13.66-.02,20.49,0,4.76,0,9.52,0,14.54h6.95v-27.45Zm-38.35,14.63c3.54,3.37,7.34,5.62,9.08,8.95,3.05,5.84,7.3,4.02,12.24,3.76-1.68-8.84-3.27-17.13-4.84-25.42-2.66-14.02-2.65-13.88-16.98-13.73-3.82,.04-5.22,1.51-5.86,5.02-1.7,9.32-3.68,18.59-5.51,27.89-.39,2.01-.59,4.06-.88,6.08q9.85,1.54,11.52-7.41c.27-1.43,.67-2.84,1.22-5.14Zm251.06-99.68s.02,0,.04,0c0,11.48,.12,22.97-.06,34.45-.07,4.54,1.72,6.21,6.19,6.12,11.47-.22,22.96,.03,34.43-.26,15.7-.39,21.92-6.07,22.66-21.68,.61-12.77,.5-25.62-.01-38.4-.57-14.22-6.97-20.52-21.21-21.15-11.63-.51-23.29-.33-34.93-.31-6.4,.01-7.01,.63-7.08,7.28-.11,11.31-.03,22.63-.03,33.95Zm-343.2,78.28c.63,.11,1.3,.41,1.89,.31,5.49-.93,6.59,1.59,6.33,6.66-.45,8.9-.13,17.84-.13,26.94,1.51,.22,2.46,.44,3.42,.49q7.13,.42,7.26-6.73c.05-3.32-.24-6.67,.09-9.96,.65-6.37-.6-11.82-6.15-15.7-.12-.09,.03-.57,.12-1.52h14.31c1.36-4.07,.24-5.57-3.47-5.46-6.8,.19-13.62,.25-20.42,.19-3.54-.03-4.41,1.48-3.26,4.76Z"/>
  <path class="cls-6" d="M486.49,159.42c-3.06,3.14-5.96,6.47-9.21,9.4-41.14,37.21-89.11,59.94-144.31,66.09-43.92,4.89-86.72-.35-127.94-17.16-27.73-11.31-52.88-26.59-75.67-45.95-3.67-3.12-4.5-5.47-1.8-9.93,13.34-22.06,43.73-31.28,66.58-19.24,10.73,5.65,20.64,12.85,31.21,18.84,56.99,32.25,117.7,39.59,181.24,26.06,25.69-5.47,50.21-14.43,73.37-26.97,1.77-.96,3.78-1.47,5.69-2.18,.29,.35,.57,.7,.86,1.04Z"/>
  <path class="cls-11" d="M192.1,342.32c.19,.21,.18,.41-.04,.59-1.12,1.54-2.68,2.92-3.29,4.64-2.59,7.38-2.49,7.42-10.43,7.43-1.82,0-3.85,.51-5.4-.13-1.56-.65-3.39-2.26-3.76-3.78-.47-1.92,.39-4.17,.74-6.27,1.37-8.25,2.77-16.5,4.15-24.75,.61-1.15,1.53-2.24,1.79-3.47,2.42-11.41,4.95-22.81,6.95-34.3,.61-3.52,2.01-4.39,5.17-4.35,6.32,.09,12.68,.41,18.95-.21,11.27-1.11,11.23-1.37,15.44,8.81,.37,.9,1.05,1.66,1.59,2.49,.05,1.98,.11,3.97,.16,5.95,.63,2.02,1.26,4.03,1.89,6.05,.02,.99,.05,1.99,.07,2.98,.01,.67,.02,1.33,.03,2,1.32,6.32,2.64,12.65,3.96,18.97,1.51,8.09,3.15,16.17,4.43,24.29,.25,1.59-.7,4.81-1.38,4.89-4.9,.59-9.92,1.02-14.78,.45-1.4-.17-2.34-3.83-3.59-5.83-.61-.97-1.4-1.84-2.18-2.69-3.53-3.87-6.99-7.82-10.68-11.54-1.49-1.5-3.39-2.71-5.31-3.6-.97-.45-3.02-.31-3.48,.34-.6,.85-.12,2.47-.11,3.76-.33,2.01-.67,4.02-1,6.03,.04,.41,.09,.82,.13,1.23Zm16.02-18.37c.14-.56,.28-1.12,.43-1.67l-.31-2.27c.24-1.77,.87-3.58,.66-5.3-.84-7.06-1.77-14.11-3.03-21.1-.35-1.92-1.97-3.6-3.01-5.39-.59,.66-1.57,1.26-1.7,2.01-1.99,11.11-3.86,22.23-5.76,33.35,1.33,2.7,10.7,4.2,12.47,1.95,.25-.31,.09-.94,.11-1.43l.14-.14Z"/>
  <path class="cls-17" d="M399.52,288.04c.1,.65,.19,1.3,.29,1.95-.02,4.22-.7,8.56,.06,12.64,3.15,16.98,6.73,33.87,10.39,51.94-4.1,0-7.29-.35-10.37,.07-7.24,1-7.27,1.1-10.07-5.65-.31-.74-.83-1.46-1.41-2.02-5.54-5.25-11.11-10.46-16.67-15.68-2.17-2.04-3.6-1.15-4.39,1.27-1.17,3.61-2.57,7.21-3.17,10.93-2.11,13.05-.59,11.44-13.8,11.51-6.18,.03-7.29-.99-6.3-6.86,1.18-6.97,3.03-13.84,4.23-20.81,1.74-10.08,3.16-20.21,4.72-30.31,.66-1.26,1.58-2.45,1.94-3.79,1.3-4.89,2.42-9.84,3.72-15.26,11.33,0,22.6-.09,33.86,.13,1.17,.02,2.31,1.89,3.46,2.9,.29,.69,.59,1.38,.88,2.07,.04,.64,.08,1.28,.12,1.92,.83,1.02,1.67,2.03,2.5,3.05Zm-23.37-1.61c-.81,1.61-1.86,3.04-2.26,4.63-2.02,8.11-4.12,16.21-5.63,24.42-.56,3.08-.31,6.76,.9,9.59,1.07,2.49,11,3.47,12.83,1.09,1.85-2.4,2.76-6.21,2.59-9.31-.36-6.55-1.39-13.1-2.74-19.53-.8-3.78-.56-8.4-5.7-10.89Z"/>
  <path class="cls-27" d="M284.84,297.38s.05-.23,.05-.23c.35-.03,.71-.05,1.06-.07,.36-.34,.71-.69,1.07-1.03,.35-.34,.69-.68,1.04-1.02,5.53-.53,6.88-2.73,4.94-8.04,1.6-2.92,2.61-7.58,4.94-8.38,4.04-1.38,8.9-.47,13.4-.24,.61,.03,1.13,1.71,1.69,2.63l-1.01,1.98c-.64,.35-1.28,.71-1.92,1.06-3.23-.29-5.16,.39-2.99,4.07-.2,6.17-3.97,10.67-7.55,15.05-4.28,5.24-4.86,10.46-.19,14.52,6.93,6.03,8.78,14.96,13.41,22.29,2.56,4.05,4.1,8.74,6.12,13.18-12.69,3.56-17.41,1.61-22.99-9.33-.3-.59-.62-1.18-.92-1.77-.65-1.02-1.29-2.04-1.94-3.07-.03-.32-.04-.63-.04-.95-.67-2.62-1.13-5.31-2.11-7.81-.38-.96-1.91-1.48-2.91-2.2-.03-.31-.04-.62-.03-.94-.65-1.03-1.31-2.06-1.96-3.08-.03-.31-.04-.61-.03-.92-.64-.7-1.28-1.4-1.92-2.09-1.67-.32-3.34-.65-5-.97-1.31,.59-3.77,1.27-3.73,1.75,.17,2.11,1.06,4.16,1.69,6.24,.31,.02,.62,.07,.92,.14-.02,1.27-.04,2.53-.06,3.8-.61,1.49-1.62,2.95-1.75,4.48-.5,5.85-.72,11.72-1.05,17.59-4.33,.3-8.66,.6-12.99,.9-.68-2.78-1.91-5.56-1.94-8.36-.18-17.76,.1-35.52-.24-53.28-.08-3.84,1.12-8.71-3.6-11.34-.03-.63-.06-1.26-.09-1.89,.28-.35,.57-.71,.85-1.06,3,0,6,0,9,0q8.51,0,10.96,7.01c0,4.32,0,8.65,0,12.97-.51,1.6-1.74,3.37-1.4,4.75,.82,3.29,2.65,6.07,7.47,5.72,.3-1.7,.64-3.57,.97-5.43h0c.32-.68,.65-1.35,.97-2.02-.05-1.54-.1-3.07-.15-4.61Zm19.94-14.13c-.41-.44-.64-.91-.96-.98-.37-.08-.82,.2-1.24,.32,.27,.42,.46,.97,.84,1.19,.22,.13,.75-.28,1.36-.53Z"/>
  <path class="cls-12" d="M448.61,305.38c.58,14.93,1.31,29.86,1.68,44.8,.16,6.21-.78,6.9-6.94,6.9-13.66,0-11.23,.53-11.35-11.16-.22-21.48,.12-42.96-.05-64.43-.04-4.7,1.81-6.22,6.14-6.11,4.99,.12,10.02,.34,14.97-.14,5.82-.57,8.61,2.12,10.96,7.1,5.53,11.73,11.61,23.21,17.5,34.77,.88,1.72,1.92,3.36,4.06,4.79,.12-2.73,.33-5.46,.35-8.2,.07-10.49,.15-20.98,.07-31.47-.04-4.83,2.03-6.71,6.9-6.8,10.82-.21,10.86-.4,10.87,10.39,.01,21.31,0,42.63-.07,63.94-.02,7.11-.31,7.35-7.26,7.37-5.33,.02-10.68-.31-15.98,.07-4.72,.34-6.79-2.09-8.57-5.88-6.84-14.61-13.85-29.14-20.83-43.69-.49-1.02-1.23-1.91-1.85-2.86-.27-.18-.53-.35-.79-.53,.06,.38,.11,.76,.17,1.14Zm-.62-6.14c.58,0,1.16-.01,1.74-.02,5.75,11.18,11.57,22.31,17.21,33.54,3.18,6.34,5.95,12.89,9.17,19.22,.61,1.19,2.43,2.46,3.72,2.49,4.96,.12,9.95-.53,14.9-.36,4.28,.15,5.4-1.61,5.37-5.62-.15-18.99-.07-37.98-.06-56.97,0-1.5-.11-3.01,.05-4.5,.77-7.19,.74-6.93-5.79-8.53-4.16-1.02-5.1,.91-5.3,4.24-.08,1.33-.03,2.66-.03,4,0,10.91,.07,21.83-.05,32.74-.03,2.27-.48,4.66-1.36,6.73-.29,.68-3.46,1.11-3.74,.67-3.71-5.84-7.37-11.74-10.58-17.87-4.68-8.96-8.86-18.19-13.56-27.14-.88-1.67-3.1-3.49-4.87-3.66-4.95-.49-9.99-.34-14.97-.03-1.28,.08-3.38,1.55-3.52,2.6-.49,3.69-.33,7.48-.34,11.23-.02,15.49,.04,30.99-.07,46.48-.02,3.46-.88,6.92-.83,10.37,.04,3.1,1.48,5.43,5.24,5.22,3.16-.17,6.99,1,7.24-4.19,.09-1.82,.43-3.64,.39-5.45-.28-13.29-.67-26.57-.9-39.86-.03-1.76,.6-3.54,.92-5.3Z"/>
  <path class="cls-3" d="M90,306.99c-2.87,11.95-5.74,23.9-8.62,35.85-.16,.65-.36,1.28-.53,1.93-3.71,14.81-1,12.2-16.23,12.27-11.43,.06-9.94,1.4-12.2-10.07-4.06-20.57-8.03-41.16-12.01-61.75-.35-1.79-.39-3.65-.75-5.44-.59-2.93,.87-4.01,3.49-4.07,4.83-.12,9.65-.14,14.48-.31,3.25-.12,4.69,1.34,5.34,4.53,2.06,10.03,4.39,20.01,7.66,30.02,2.23-8.87,4.38-17.76,6.71-26.6,2.1-7.98,2.19-7.97,10.52-8.03,3.83-.03,7.69,.35,11.48-.02,4.7-.46,6.45,1.81,7.38,5.97,2.13,9.51,4.55,18.97,8.06,28.49,1.78-7.92,3.73-15.81,5.29-23.78,2.07-10.59,1.94-10.62,12.72-10.55,8.37,.05,8.63,.17,6.98,8.49-2.33,11.74-5.07,23.4-7.48,35.13-1.23,5.98-2.1,12.04-3.13,18.06-.44-.06-.87-.12-1.31-.18,.08-1.99,.16-3.97,.24-5.96,.31-.97,.61-1.94,.92-2.91,.32-.74,.83-1.45,.94-2.22,1.07-7.86,1.9-15.75,3.14-23.57,1.09-6.85,2.74-13.61,3.83-20.45,.18-1.13-1.03-3.35-2.02-3.65-7.11-2.15-11.57,.9-12.81,8.32-1.77,10.55-3.57,21.09-5.35,31.64l-2.49,.14c-1.1-4.2-2.12-8.42-3.33-12.58-1.71-5.9-3.62-11.74-5.33-17.64-2.86-9.91-3.03-10.08-13.3-10.08-2.17,0-4.36,.25-6.49-.04-3.62-.5-4.96,1.23-5.75,4.48-2.17,8.96-4.54,17.88-6.97,26.77-.62,2.27-1.77,4.4-2.66,6.58-.86-.34-1.37-.4-1.43-.59-3-10.07-6.42-20.04-8.77-30.26-1.56-6.78-.87-6.93-8.02-6.93-2,0-4,.09-6,0-3.81-.17-4.73,2.01-3.93,5.12,.61,2.37,2.2,4.52,2.63,6.9,2.18,11.98,4.01,24.02,6.18,36,1.44,7.98,3.18,15.9,4.92,23.82,.89,4.06,3.36,5.86,7.69,4.89,1.71-.38,3.59-.41,5.33-.13,4.67,.74,7.1-1.09,8.04-5.75,.93-4.63,2.29-9.17,3.44-13.76,1.89-7.54,3.61-15.13,5.72-22.62,.82-2.92,2.51-5.61,3.8-8.4,0,.98,0,1.96,0,2.94Z"/>
  <path class="cls-10" d="M462.98,26.07c19.19,2.95,37.58,8.63,55.46,16.12,25.37,10.64,48.79,24.49,69.63,42.52,7.59,6.57,8.98,6.04,1.57,16.17-16.05,21.92-45.88,27.06-69.21,12.82-14.2-8.67-28.38-17.45-43.14-25.07-21.76-11.24-45.23-17.58-69.4-21.33,.04-.41,.07-.82,.11-1.22,.67-.03,1.33-.06,2-.09,1.33,.02,2.66,.03,3.99,.05h2.01c.32,.05,.64,.06,.96,.06,4.01,.98,8.03,1.96,12.04,2.94l.49,.03h.49c.67,.32,1.34,.65,2.01,.97,2.33,.34,4.66,.69,6.99,1.03,7.65,2.68,15.31,5.37,22.96,8.05,5.24,2.3,10.58,4.39,15.69,6.95,9.64,4.83,19.27,9.71,28.67,14.99,5.42,3.04,10.33,6.97,15.54,10.39,11.28,7.4,23.73,9.33,36.62,6.33,6.47-1.51,13.03-4.11,18.55-7.74,4.79-3.15,8.11-8.51,12.22-12.76,2.46-2.55,2.48-6.87,0-8.67-4.96-3.61-9.77-7.42-14.68-11.1-5.52-4.14-11.04-8.29-16.65-12.3-2.13-1.52-4.47-2.8-6.81-3.98-5.25-2.64-10.58-5.12-15.86-7.7-5.75-2.82-11.48-5.69-17.22-8.53-16.04-7.3-32.93-11.93-50.02-15.93-.66-.02-1.33-.03-1.99-.05-1.34-.65-2.68-1.3-4.02-1.96,.33-.32,.66-.64,.99-.97Z"/>
  <path class="cls-14" d="M310.75,401.68v27.45h-6.95c0-5.02,0-9.78,0-14.54,.01-6.83,.12-13.66,.02-20.49-.04-2.9,.91-3.94,3.98-4.23,6.23-.59,10.24,1.11,12.66,7.42,2.43,6.31,6.07,12.15,9.81,19.41,.26-2.38,.49-3.54,.5-4.69,.05-6-.15-12.01,.19-17.98,.08-1.37,1.73-3.39,3.06-3.79,2.37-.72,4.09,.51,4.07,3.46-.06,10.83,.06,21.66-.18,32.49-.02,1.12-1.91,2.98-3.14,3.16-8.58,1.27-9.64,.6-13.39-7.2-2.53-5.25-4.99-10.52-7.57-15.75-.66-1.34-1.63-2.53-3.07-4.71Z"/>
  <path class="cls-19" d="M441.6,389.15c3.78,.43,7.58,.71,11.32,1.33,3.6,.6,5.44,2.88,5.41,6.62-.06,8.14-.06,16.27-.14,24.41-.04,3.87-2.09,6.71-5.82,6.89-6.56,.32-13.18,.18-19.72-.38-3.58-.31-5.18-3.23-5.18-6.85,0-7.14-.18-14.28,0-21.42,.19-7.5,1.95-9.17,9.46-9.97,.79-.08,1.57-.34,2.36-.51,.77-.04,1.54-.08,2.31-.12Zm-3.07,.74c0,11.84-.15,22.55,.2,33.26,.04,1.23,3.13,3.56,4.28,3.27,1.65-.42,3.88-2.68,4-4.3,.46-6.1-.27-12.29,.29-18.37,.6-6.53-2.81-10.03-8.77-13.85Z"/>
  <path class="cls-14" d="M272.4,416.32c-.55,2.29-.95,3.7-1.22,5.14q-1.69,8.95-11.52,7.41c.28-2.01,.48-4.06,.88-6.08,1.82-9.3,3.81-18.57,5.51-27.89,.64-3.51,2.04-4.98,5.86-5.02,14.32-.14,14.32-.28,16.98,13.73,1.57,8.29,3.16,16.59,4.84,25.42-4.94,.26-9.19,2.08-12.24-3.76-1.74-3.33-5.54-5.58-9.08-8.95Zm8.6-2.43c-1.36-6.58-2.62-12.68-3.87-18.78l-1.4,.16c-1.13,6.09-2.26,12.19-3.44,18.61h8.72Z"/>
  <path class="cls-4" d="M400.06,390.15c.83-.04,1.66-.08,2.48-.11,13.32-.47,17.05,3.56,15.52,16.85-.53,4.64-2.8,7.73-7.74,8.27-3.78,.41-7.56,.79-12.07,1.27v11.9c-.86,.56-.99,.71-1.14,.74-9.23,1.43-9.59,1.14-9.64-8.04-.04-8.13-.09-16.27-.06-24.4,.02-6.67,.07-6.67,6.57-6.59,1.33,.02,2.65,.04,3.98,.05v19.52c9.11,1.18,11.44-.96,9.92-8.52-.32-1.62-1.73-3.06-2.78-4.48-1.62-2.2-3.36-4.32-5.05-6.47Z"/>
  <path class="cls-2" d="M523.46,316.64c0-11.32-.08-22.63,.03-33.95,.07-6.65,.68-7.27,7.08-7.28,11.65-.02,23.31-.21,34.93,.31,14.24,.63,20.64,6.93,21.21,21.15,.51,12.78,.62,25.63,.01,38.4-.74,15.61-6.97,21.29-22.66,21.68-11.47,.29-22.96,.04-34.43,.26-4.47,.09-6.26-1.58-6.19-6.12,.18-11.48,.06-22.96,.06-34.45-.01,0-.02,0-.04,0Zm2.5-.43h.02c0,11.33,.07,22.66-.04,33.99-.03,3.3,.98,4.9,4.56,4.86,11.33-.13,22.66,.13,33.99-.11,12.04-.25,18.08-4.38,19.55-16.48,2.02-16.61,2.56-33.5-1.5-50.01-1.25-5.08-4.97-9.09-10.44-9.49-13.31-.97-26.66-1.3-39.99-1.98-4.53-.23-6.26,1.77-6.2,6.24,.15,10.99,.05,21.99,.05,32.99Z"/>
  <path class="cls-13" d="M353.03,297c-1.56,10.11-2.98,20.24-4.72,30.31-1.2,6.97-3.05,13.83-4.23,20.81-.99,5.88,.12,6.89,6.3,6.86,13.2-.06,11.68,1.55,13.8-11.51,.6-3.72,2-7.32,3.17-10.93,.78-2.42,2.22-3.31,4.39-1.27,5.56,5.22,11.13,10.43,16.67,15.68,.59,.56,1.1,1.27,1.41,2.02,2.8,6.75,2.83,6.64,10.07,5.65,3.08-.42,6.27-.07,10.37-.07-3.66-18.07-7.24-34.96-10.39-51.94-.76-4.07-.08-8.42-.06-12.64,4.21,20.68,8.41,41.37,12.62,62.05,.69,3.37-.58,5.11-4.12,5.08-5.32-.05-10.67,.18-15.96-.24-1.47-.12-3.48-1.81-4.06-3.25-3.68-9.14-12.07-13.64-19.16-21.52-1.31,7.46-2.55,13.24-3.27,19.09-.55,4.47-2.46,6.51-7.07,6.15-3.81-.29-7.65-.14-11.48-.22-6.7-.13-7.35-.76-5.96-7.85,2.93-15.02,6.08-30,9.15-44.99,.5-2.44,1.09-4.87,1.64-7.3,0,0,.45,0,.45,0h.45Z"/>
  <path class="cls-20" d="M180.26,394.91c-1.14-3.28-.28-4.79,3.26-4.76,6.81,.06,13.62,0,20.42-.19,3.71-.1,4.83,1.39,3.47,5.46h-14.31c-.08,.95-.24,1.43-.12,1.52,5.55,3.87,6.8,9.33,6.15,15.7-.33,3.29-.04,6.64-.09,9.96q-.12,7.13-7.26,6.73c-.96-.06-1.91-.27-3.42-.49,0-9.1-.32-18.04,.13-26.94,.26-5.07-.85-7.6-6.33-6.66-.6,.1-1.26-.2-1.89-.31Z"/>
  <path class="cls-18" d="M310.07,284.04c.64-.35,1.28-.71,1.92-1.06,.34-.66,.67-1.32,1.01-1.98-.56-.92-1.08-2.6-1.69-2.63-4.5-.23-9.36-1.14-13.4,.24-2.33,.8-3.33,5.46-4.94,8.38-1.65,1.36-3.3,2.71-4.95,4.07,.05-.33,.04-.68,.17-.97,6.7-15.22,9.48-16.74,26.22-14.71,4.63,.56,3.47,2.99,1.97,5.54-5.13,8.75-10.19,17.55-15.52,26.19-2.26,3.65-2.8,6.45,1.41,9.03,1.47,.9,2.68,2.57,3.48,4.16,5.15,10.25,10.29,20.51,15.15,30.9,2.15,4.58,1.32,5.67-3.61,5.86-3.65,.15-7.36-.29-10.97,.16-5.64,.71-8.54-1.9-10.52-6.83-1.97-4.91-4.52-9.6-6.82-14.38,0,0,.23-.21,.23-.21l3.73,2.25c0,.32,.01,.64,.04,.95,.65,1.02,1.29,2.04,1.94,3.07,.31,.59,.62,1.18,.92,1.77,5.59,10.93,10.3,12.89,22.99,9.33-2.02-4.44-3.56-9.13-6.12-13.18-4.63-7.33-6.47-16.26-13.41-22.29-4.66-4.06-4.08-9.28,.19-14.52,3.58-4.39,7.35-8.88,7.55-15.05,1-1.36,1.99-2.71,2.99-4.07Z"/>
  <path class="cls-20" d="M482.03,390.06c3.15,.2,6.3,.34,9.44,.61,4.35,.38,8.28,1.27,9.19,6.62,1.19,7-.56,11.19-6.21,14.14q6.84,4.17,6.32,17.71c-.92,.09-1.88,.23-2.85,.27-7.32,.28-7.53,.09-7.95-7.17-.29-4.98-5.51-10.82-10.07-11.28,.04-.99,.07-1.98,.11-2.96,3.3,.34,7.27,2.19,9.3-1.77,2.14-4.17,.51-7.86-3.07-10.89-1.69-1.43-2.83-3.49-4.22-5.27Z"/>
  <path class="cls-14" d="M230,389.99c3.31,.25,6.79-.05,9.89,.9,2.89,.89,6.96,2.57,7.72,4.83,1.52,4.58,1.87,9.93-2.35,13.98-.7,.67-1.63,1.12-2.98,2.01,9.77,3.09,4.47,11.13,6.93,17.7-3.39,0-6.03,.29-8.55-.14-1.04-.18-2.7-2.01-2.57-2.88,1.02-7.19-3.59-11.3-8.04-15.55,.01-.72,.02-1.43,.03-2.15,6.85-.32,9.8-4.32,6.87-9.64-1.01-1.82-2.94-3.11-4.27-4.78-1.04-1.31-1.8-2.85-2.68-4.29Z"/>
  <path class="cls-25" d="M658.93,356.65c-.55-.29-1.52-.49-1.6-.87-2.19-10.72-12.26-14.73-18.1-22.32-.49,.06-.98,.11-1.46,.17-.71,3.59-1.41,7.17-2.14,10.75-2.98,14.58,.28,12.93-15.38,12.79-12.33-.11-12.2,1.61-9.52-11.63,4.34-21.37,8.78-42.73,12.93-64.14,.87-4.48,3.07-6.28,7.39-6.08,2.98,.13,5.97,.19,8.96,.28,0,.46,0,.93,0,1.39-2.74,.32-5.51,1.06-8.21,.86-3.8-.27-5.58,1.31-6.17,4.81-.69,4.07-1.3,8.16-2.11,12.21-3.17,15.88-6.59,31.72-9.57,47.64-2.39,12.78-2.16,12.77,11.16,12.52,4.17-.08,6.39-1.79,7.01-6.03,.76-5.22,1.74-10.43,3-15.55,.57-2.32,2.63-4.98,4.99-2.53,7.07,7.36,16.61,12.87,19,23.96l-.18,1.76Z"/>
  <path class="cls-14" d="M360.58,405.82c2.73,.6,5.48,1.12,8.19,1.82,8.28,2.15,12.14,11.22,7.21,18.23-1.46,2.08-5.25,2.52-7.97,3.71-.23-.49-.46-.98-.69-1.47-.04-.7-.08-1.4-.12-2.1,.39-.16,.77-.32,1.16-.48-.37-.18-.73-.36-1.1-.54q-.86-11.37-12.08-14.09c-1.09-.27-2.11-.82-3.17-1.24-.76-.52-1.52-1.04-2.28-1.56-.52-1.05-1.04-2.11-1.56-3.16-.05-.65-.11-1.3-.16-1.94-.84-10,.52-12.19,8.02-12.89,.48,.6,.96,1.2,1.44,1.81,.19,3.99,.38,7.99,.58,11.98,.85,.64,1.69,1.28,2.54,1.93Z"/>
  <path class="cls-19" d="M230.08,408.7c-.01,.72-.02,1.43-.03,2.15-.75,.68-2.09,1.32-2.14,2.06-.26,3.64-.48,7.33-.14,10.94,.45,4.72-1.47,6.33-5.93,5.61-1.44-.23-2.9-.29-4.86-.48,0-12.26-.07-24.2,.13-36.12,.02-.97,1.8-2.49,2.97-2.72,2.24-.46,4.62-.17,6.94-.2,.25,4.89,.34,9.8,.84,14.67,.15,1.43,1.44,2.74,2.21,4.1Z"/>
  <path class="cls-16" d="M408,66.06c-.04,.41-.07,.82-.11,1.22-10.12-.74-20.23-1.93-30.36-2.15-46.72-1.02-90.83,9.52-132.5,30.53-3.46,1.74-7.04,3.24-10.94,4.51,2.81-5.72,7.27-10,12.33-13.77,.2,.22,.41,.44,.63,.64-.21,1.2-.41,2.39-.78,4.55,3.09-1.03,5.42-1.7,7.67-2.57,12.03-4.65,24.05-9.35,36.07-14.03,1-.33,2-.65,2.99-.98,1.67-.66,3.34-1.32,5.02-1.99,2.33-.36,4.65-.72,6.98-1.08,3.7-1.3,7.4-2.6,11.1-3.9,.62,0,1.24,.02,1.86,.03,1.68-.03,3.36-.07,5.04-.1,2-.33,4-.66,6-1,.67-.32,1.35-.63,2.02-.95,6.99-.37,13.98-.73,20.97-1.1,4.68-.02,9.35-.04,14.03-.07,3.32,0,6.64,0,9.97,.01,2.68-.01,5.36-.03,8.04-.04,4.65,.07,9.3,.15,13.95,.22,1.35,.29,2.69,.58,4.04,.87,.66,.02,1.32,.04,1.99,.07,1.34,.35,2.67,.71,4.01,1.06Z"/>
  <path class="cls-16" d="M462.98,26.07c-.33,.32-.66,.64-.99,.97-2.66-.01-5.33-.02-7.99-.03-.66,0-1.33,0-1.99-.01l-4.01-.98c-5.67-.34-11.33-.69-17-1.03-4-.31-8-.63-12-.94-1,0-1.99,0-2.99,0-3.01,.31-6.02,.61-9.03,.92-4.99,.03-9.98,.06-14.97,.09-1.01,.3-2.02,.59-3.04,.89-4.66,.68-9.31,1.37-13.97,2.05-2.33,.34-4.67,.67-7,1.01-2,.34-4,.67-6,1.01-.67,.32-1.34,.63-2.02,.95-2.66,.37-5.31,.74-7.97,1.11-3.68,1.31-7.35,2.62-11.03,3.93-3.99,1.34-7.99,2.68-11.98,4.02-1.67,.65-3.34,1.31-5.01,1.96-1.33,.34-2.66,.68-3.99,1.02-5.25,1.76-10.49,3.52-15.74,5.28,0,0-.27-.29-.27-.29,18.05-9.64,37.39-15.55,57.23-20.08,30.56-6.98,61.35-7.73,92.33-3.67,3.17,.42,6.29,1.22,9.44,1.84Z"/>
  <path class="cls-14" d="M480.01,408c-.04,.99-.07,1.98-.11,2.96,0,.69,.02,1.38,.03,2.07,0,.65-.02,1.3-.03,1.94l-.2,13.02c-.58,.38-1.16,.76-1.74,1.13-.98,.1-1.97,.15-2.95,.3-4.29,.64-5.78-.99-5.62-5.46,.34-9.27,.39-18.57-.03-27.83-.23-5.29,1.83-6.83,6.62-6.14,1.3,.19,2.65,.08,3.97,.1,.02,5.97,.03,11.94,.05,17.91Z"/>
  <path class="cls-4" d="M524.33,395.16c.79,1.41,1.68,2.77,2.37,4.23,1.41,3,3.45,5.96,3.88,9.11,.64,4.72,.15,9.61,.09,14.42-.09,6.66-.11,6.68-6.7,6.44-1.13-.04-2.26-.29-3.84-.51v-32.91c1.4-.26,2.8-.53,4.2-.79Z"/>
  <path class="cls-28" d="M90,306.99c0-.98,0-1.96,0-2.94,2.13-.14,3.61-.03,4.13,2.86,.97,5.44,2.66,10.75,3.97,16.13,1.36,5.56,2.58,11.16,3.94,16.72,1.09,4.44,1.62,9.23,3.8,13.07,.88,1.55,5.49,.93,8.38,1.42,6.36,1.09,8.64-.81,9.94-7.3,.69-3.45,2.42-6.69,3.68-10.03,.44,.06,.87,.12,1.31,.18-.97,5.54-1.72,11.14-3.07,16.58-.34,1.37-2.55,3.1-4.01,3.21-5.11,.38-10.27,.12-15.41,.13-4.58,0-4.51-3.78-5.17-6.66-3.08-13.39-5.94-26.83-9.03-40.22-.27-1.18-1.62-2.1-2.47-3.15Z"/>
  <path class="cls-25" d="M223.95,289.02c-.54-.83-1.22-1.59-1.59-2.49-4.21-10.18-4.17-9.93-15.44-8.81-6.26,.62-12.63,.29-18.95,.21-3.16-.04-4.56,.84-5.17,4.35-2,11.49-4.52,22.89-6.95,34.3-.26,1.23-1.18,2.32-1.79,3.47-.55-.01-1.1-.03-1.65-.04,2.55-12.53,5.32-25.01,7.56-37.59,.98-5.51,3.61-7.41,9.05-7.23,9.3,.32,18.62,.27,27.91,0,4.19-.12,6.17,1.46,6.64,5.46,.33,2.8,.82,5.57,1.24,8.36-.29,0-.59,0-.88,.02Z"/>
  <path class="cls-13" d="M192.98,335.05c-.01-1.29-.5-2.91,.11-3.76,.46-.65,2.51-.78,3.48-.34,1.92,.89,3.82,2.1,5.31,3.6,3.69,3.72,7.15,7.66,10.68,11.54,.78,.85,1.57,1.72,2.18,2.69,1.25,2,2.19,5.66,3.59,5.83,4.86,.58,9.88,.14,14.78-.45,.68-.08,1.63-3.3,1.38-4.89-1.28-8.13-2.92-16.2-4.43-24.29,.62-.32,1.24-.64,1.86-.96,1.93,9.26,3.87,18.53,5.78,27.79,.71,3.46-.39,5.48-4.29,5.36-2.99-.09-5.99-.12-8.97,.07-5.94,.39-9.79-.62-12.97-7.24-2.98-6.2-9.81-10.59-15.12-15.6-.49-.46-2.21,.4-3.36,.65Z"/>
  <path class="cls-13" d="M658.93,356.65c.06-.59,.12-1.17,.18-1.76,4.49,.04,8.99,.12,13.48,.11,5.04-.01,6.31-1.33,5.32-6.36-2.69-13.6-5.67-27.14-8.39-40.73-1.33-6.64-2.37-13.33-3.54-20l-.91-3.85c-.05-1.34-.1-2.68-.15-4.02,.46,0,.91,0,1.37,0,3.51,16.92,7.05,33.83,10.53,50.76,1.38,6.68,2.6,13.39,4,20.06,.87,4.18-.32,6.42-4.96,6.23-5.64-.24-11.29-.29-16.93-.42Z"/>
  <path class="cls-2" d="M353.03,297h-.45s-.45,0-.45,0c1.08-5.68,2.22-11.35,3.2-17.05,.59-3.42,2.56-4.63,5.87-4.61,10.6,.06,21.2,.08,31.79-.05,4.16-.05,5,2.35,4.97,5.72-.65,0-1.3,0-1.95-.01-1.15-1.01-2.29-2.88-3.46-2.9-11.26-.22-22.53-.13-33.86-.13-1.31,5.42-2.42,10.36-3.72,15.26-.36,1.34-1.28,2.53-1.94,3.79Z"/>
  <path class="cls-20" d="M367.32,428.11c.23,.49,.46,.98,.69,1.47-4.91-.07-9.89,.38-14.7-.34-5.03-.74-6.04-3.56-5.12-11.19,4-.93,7.41-1.72,10.35,3.12,1.82,2.99,5.78,4.67,8.79,6.93Z"/>
  <path class="cls-16" d="M246.42,86.41c17.28-15.66,36.29-28.74,57.56-38.43,0,0,.27,.29,.27,.29-.42,.9-.84,1.8-1.25,2.71-1.68,.98-3.36,1.96-5.04,2.94-.66,.34-1.33,.68-1.99,1.03-1.32,.68-2.65,1.36-3.97,2.04-1.35,.99-2.69,1.98-4.04,2.98,0,0,0,0,0,0-1.99,1-3.99,2-5.98,3-.99,.36-1.98,.72-2.97,1.08-1.01,1.3-2.02,2.61-3.03,3.91-4,2.66-8,5.33-12,7.99-1.71,.95-3.49,1.78-5.1,2.86-3.99,2.68-7.89,5.49-11.83,8.24-.22-.2-.43-.41-.63-.64Z"/>
  <path class="cls-20" d="M357.46,391.92c-.48-.6-.96-1.2-1.44-1.81,3.97-.1,7.96-.51,11.91-.23,7.84,.56,9.87,3.77,7.85,11.89-3.99,.39-7.66,1.3-10.26-3.82-1.36-2.68-5.29-4.07-8.06-6.04Z"/>
  <path class="cls-3" d="M172.43,320.01c.55,.01,1.1,.03,1.65,.04-1.39,8.25-2.78,16.5-4.15,24.75-.35,2.1-1.2,4.35-.74,6.27,.37,1.52,2.2,3.13,3.76,3.78,1.55,.64,3.58,.13,5.4,.13,7.94-.01,7.84-.05,10.43-7.43,.6-1.72,2.17-3.1,3.29-4.64-.54,14.3-.54,14.36-14.46,14.22-13.09-.12-12.82,1.39-9.98-12.43,1.69-8.21,3.21-16.46,4.81-24.69Z"/>
  <path class="cls-21" d="M400.06,390.15c1.69,2.15,3.43,4.27,5.05,6.47,1.05,1.42,2.45,2.86,2.78,4.48,1.52,7.56-.81,9.7-9.92,8.52v-19.52c.7,.02,1.4,.04,2.1,.05Z"/>
  <path class="cls-21" d="M230.08,408.7c-.77-1.36-2.07-2.67-2.21-4.1-.5-4.87-.59-9.78-.84-14.67,.99,.02,1.98,.04,2.97,.06,.88,1.44,1.64,2.98,2.68,4.29,1.33,1.68,3.27,2.96,4.27,4.78,2.93,5.32-.01,9.32-6.87,9.64Z"/>
  <path class="cls-21" d="M480.01,408c-.02-5.97-.03-11.94-.05-17.91,.69,0,1.37-.02,2.06-.03,1.39,1.78,2.53,3.85,4.22,5.27,3.58,3.03,5.22,6.72,3.07,10.89-2.04,3.96-6,2.11-9.3,1.77Z"/>
  <path class="cls-6" d="M524.33,395.16c-1.4,.26-2.8,.53-4.2,.79-2.37-.29-4.75-.58-7.12-.88-.43-.36-.85-.72-1.28-1.08-.82-2.5,.03-3.83,2.72-3.84,7.26-.02,14.52-.11,21.78,.06,1.08,.03,2.12,1.36,3.18,2.08-1.07,1-2.07,2.76-3.21,2.85-3.93,.32-7.9,.05-11.85,0Z"/>
  <path class="cls-2" d="M257,279c-.28,.35-.57,.71-.85,1.06-.31-.02-.62-.05-.93-.09-.41-3,1.13-4.36,3.92-4.43,5.3-.13,10.61-.14,15.91-.23,2.97-.05,4.08,1.44,4.04,4.32-.1,7.79-.06,15.58-.08,23.37-.33,0-.65,0-.98,.02l-.06-.07c0-5.66-.01-11.32-.02-16.98,.03-8.51-.4-8.95-8.78-8.97-2.95,0-5.93-.18-8.85,.1-1.16,.11-2.22,1.24-3.32,1.9Z"/>
  <path class="cls-3" d="M277.82,331.95c.02-1.27,.04-2.53,.06-3.8,.35-1.04,.7-2.09,1.05-3.13,.08,8.64,.18,17.28,.23,25.92,.02,4.22-2.07,6.3-6.36,6.22-4.49-.09-8.99,.09-13.46-.18-1.36-.08-2.65-1.26-3.97-1.94,.27-.07,.55-.12,.83-.15,1.94,.01,3.88,.03,5.82,.04,4.33-.3,8.66-.6,12.99-.9,.98-1.69,2.71-3.35,2.81-5.09,.32-5.64,.04-11.32,0-16.98Z"/>
  <path class="cls-8" d="M256.21,354.88c-.28,.03-.56,.09-.83,.15-.17-1.3-.48-2.6-.48-3.91-.03-22.23-.02-44.47,0-66.7,0-1.48,.21-2.97,.32-4.46,.31,.04,.62,.07,.93,.09,.03,.63,.06,1.26,.09,1.89-.01,24.31-.02,48.62-.03,72.93Z"/>
  <path class="cls-25" d="M278.94,325.02c-.35,1.04-.7,2.09-1.05,3.13-.3-.06-.61-.11-.92-.13,.68-2.66,1.36-5.32,2.05-7.98,1.67,.32,3.34,.65,5,.97,.64,.7,1.28,1.4,1.92,2.09,0,.31,0,.61,.03,.92,.65,1.03,1.31,2.06,1.96,3.08,0,.31,0,.62,.03,.93,.43,2.59,.86,5.17,1.28,7.76,0,0-.23,.21-.23,.21-2.66-4.5-5.32-9-8.4-14.21-.85,1.64-1.26,2.44-1.67,3.23Z"/>
  <path class="cls-18" d="M231.91,324.01c-.62,.32-1.24,.64-1.86,.96-1.32-6.32-2.64-12.65-3.96-18.97,.81,.3,1.62,.6,2.42,.9,1.13,5.7,2.26,11.41,3.39,17.11Z"/>
  <path class="cls-3" d="M640,277.01c0-.46,0-.93,0-1.39,8.01,.18,16.02,.36,24.03,.54,.35,.28,.71,.57,1.06,.85,.37,.13,.53,.39,.5,.78-.86,.08-1.73,.16-2.59,.24l-.03-.02-6.98-.95c-5.33-.02-10.66-.03-16-.05Z"/>
  <path class="cls-15" d="M288.04,291.05c1.65-1.36,3.3-2.71,4.95-4.07,1.95,5.31,.6,7.51-4.94,8.04-.06-1.17-.12-2.34-.18-3.5-.1-.21-.05-.37,.17-.47Z"/>
  <path class="cls-25" d="M226,301.02c-.63-2.02-1.26-4.03-1.89-6.05,.57-.3,1.14-.6,1.72-.91,.5,2.31,.99,4.61,1.49,6.92-.44,.01-.88,.02-1.32,.03Z"/>
  <path class="cls-2" d="M284.84,297.38c.05,1.54,.1,3.07,.15,4.61-.32,.67-.65,1.35-.97,2.02,0,0,0,0,0,0-.95,.06-1.9,.11-2.85,.17l-.25-.28c1.31-2.17,2.61-4.35,3.92-6.52Z"/>
  <path class="cls-18" d="M225.83,294.07c-.57,.3-1.14,.6-1.72,.91-.05-1.98-.11-3.97-.16-5.95,.29-.01,.59-.02,.88-.02,.33,1.69,.66,3.38,1,5.07Z"/>
  <path class="cls-13" d="M399.52,288.04c-.83-1.02-1.67-2.03-2.5-3.05,.61,.02,1.23,.03,1.84,.05,.22,1,.44,2,.66,3Z"/>
  <path class="cls-2" d="M287.87,291.52c.06,1.17,.12,2.34,.18,3.5-.35,.34-.69,.68-1.04,1.02-.33-.01-.67-.02-1-.04-.14-.14-.28-.28-.42-.42,.76-1.36,1.52-2.71,2.29-4.07Z"/>
  <path class="cls-25" d="M228.52,306.9c-.81-.3-1.62-.6-2.42-.9,0-.67-.02-1.33-.03-2,.61,0,1.22,.02,1.83,.03,.21,.96,.42,1.92,.63,2.87Z"/>
  <path class="cls-25" d="M663,278.03c.86-.08,1.73-.16,2.59-.24,.23,.75,.47,1.49,.7,2.24-.46,0-.91,0-1.37,0-.64-.67-1.28-1.33-1.92-2Z"/>
  <path class="cls-18" d="M227.89,304.03c-.61,0-1.22-.02-1.83-.03-.02-.99-.05-1.99-.07-2.98,.44,0,.88-.02,1.32-.03,.19,1.01,.38,2.03,.57,3.04Z"/>
  <path class="cls-2" d="M398.86,285.04c-.61-.02-1.23-.03-1.84-.05-.04-.64-.08-1.28-.12-1.92,.4-.42,.8-.83,1.19-1.25,.25,1.07,.51,2.15,.76,3.22Z"/>
  <path class="cls-13" d="M398.1,281.82c-.4,.42-.8,.83-1.19,1.25-.29-.69-.59-1.38-.88-2.07,.65,0,1.3,0,1.95,.01,.22,.24,.26,.52,.13,.82Z"/>
  <path class="cls-18" d="M279.12,303.9c.6,0,1.2,0,1.79,0,0,0,.24,.28,.24,.28-.47,.46-.95,.91-1.42,1.37-.28-.49-.57-.98-.85-1.47l.24-.19Z"/>
  <path class="cls-20" d="M348,403c.05,.65,.11,1.3,.16,1.94-.05-.65-.11-1.3-.16-1.94Z"/>
  <path class="cls-20" d="M360.58,405.82c-.85-.64-1.69-1.28-2.54-1.93,.85,.64,1.69,1.28,2.54,1.93Z"/>
  <path class="cls-20" d="M349.73,408.11c.76,.52,1.52,1.04,2.28,1.56-.76-.52-1.52-1.04-2.28-1.56Z"/>
  <path class="cls-20" d="M479.9,414.97c0-.65,.02-1.3,.03-1.94,0,.65-.02,1.3-.03,1.94Z"/>
  <path class="cls-20" d="M477.96,429.12c.58-.38,1.16-.76,1.74-1.13-.58,.38-1.16,.76-1.74,1.13Z"/>
  <path class="cls-20" d="M367.25,424.99c.37,.18,.73,.36,1.1,.54-.39,.16-.77,.32-1.16,.48,.02-.34,.04-.68,.06-1.01Z"/>
  <path class="cls-2" d="M285.95,297.08c-.35,.02-.7,.05-1.06,.07,.23-.52,.46-1.04,.7-1.56,.14,.14,.28,.28,.42,.42-.02,.36-.04,.71-.06,1.07Z"/>
  <path class="cls-5" d="M441.6,389.15c-.77,.04-1.54,.08-2.31,.12,.77-.04,1.54-.08,2.31-.12Z"/>
  <path class="cls-3" d="M192.1,342.32c-.04-.41-.09-.82-.13-1.23,.04,.41,.09,.82,.13,1.23Z"/>
  <path class="cls-25" d="M665.09,277.01c-.35-.28-.71-.57-1.06-.85,.35,.28,.71,.57,1.06,.85Z"/>
  <path class="cls-20" d="M511.73,393.99c.43,.36,.85,.72,1.28,1.08-.43-.36-.85-.72-1.28-1.08Z"/>
  <path class="cls-18" d="M278.04,303.02c.33-.01,.65-.02,.98-.02,.17,.28,.2,.58,.1,.9,0,0-.24,.19-.24,.19-.28-.35-.56-.71-.84-1.06Z"/>
  <path class="cls-23" d="M195.4,323.57c1.9-11.12,3.77-22.25,5.76-33.35,.13-.75,1.12-1.34,1.7-2.01,1.79,10.6,3.59,21.2,5.38,31.8,.1,.76,.21,1.51,.31,2.27-.14,.56-.28,1.12-.43,1.68,0,0-.14,.14-.14,.14-4.2-.17-8.39-.35-12.59-.52Z"/>
  <path class="cls-2" d="M208.24,320c-1.79-10.6-3.59-21.2-5.38-31.8,1.04,1.79,2.66,3.48,3.01,5.39,1.26,6.99,2.2,14.05,3.03,21.1,.2,1.72-.42,3.53-.66,5.3Z"/>
  <path class="cls-2" d="M195.4,323.57c4.2,.17,8.39,.35,12.59,.52-.03,.48,.13,1.12-.11,1.43-1.77,2.24-11.14,.75-12.47-1.95Z"/>
  <path class="cls-2" d="M208.13,323.95c.14-.56,.28-1.12,.43-1.68-.14,.56-.28,1.12-.43,1.68Z"/>
  <path class="cls-13" d="M376.15,286.43c5.14,2.49,4.9,7.12,5.7,10.89,1.35,6.43,2.38,12.98,2.74,19.53,.17,3.11-.74,6.92-2.59,9.31-1.83,2.38-11.76,1.4-12.83-1.09-1.22-2.83-1.47-6.51-.9-9.59,1.5-8.21,3.61-16.31,5.63-24.42,.4-1.59,1.45-3.02,2.26-4.63Zm7.35,37.27c-2.02-11.87-3.95-23.21-5.88-34.56l-1.41,.12c-1.94,11.35-3.88,22.7-5.89,34.44h13.18Z"/>
  <path class="cls-15" d="M256.21,354.88c0-24.31,.02-48.62,.03-72.93,4.73,2.63,3.53,7.5,3.61,11.34,.35,17.75,.07,35.52,.24,53.28,.03,2.79,1.26,5.57,1.94,8.36-1.94-.01-3.88-.03-5.82-.04Z"/>
  <path class="cls-15" d="M257,279c1.1-.66,2.16-1.79,3.32-1.9,2.93-.28,5.9-.11,8.85-.1,8.38,.02,8.82,.47,8.78,8.98-.33,.01-.66,.02-.99,.03q-2.46-7.01-10.96-7.01c-3,0-6,0-9,0Z"/>
  <path class="cls-15" d="M277.82,331.95c.05,5.66,.33,11.34,0,16.98-.1,1.74-1.83,3.4-2.81,5.09,.33-5.86,.55-11.74,1.05-17.59,.13-1.53,1.14-2.99,1.75-4.48Z"/>
  <path class="cls-15" d="M278.04,303.02c.28,.35,.56,.71,.84,1.06,.28,.49,.57,.98,.85,1.47,.47-.46,.95-.91,1.42-1.37,.95-.06,1.9-.11,2.85-.17-.33,1.87-.67,3.73-.97,5.43-4.82,.36-6.65-2.43-7.47-5.72-.35-1.38,.88-3.16,1.4-4.75,.34,1.33,.68,2.65,1.02,3.98l.06,.07Z"/>
  <path class="cls-15" d="M289.24,335.79c-.43-2.59-.86-5.17-1.28-7.76,1,.72,2.54,1.23,2.91,2.2,.97,2.5,1.44,5.19,2.11,7.81-1.25-.75-2.49-1.5-3.73-2.25Z"/>
  <path class="cls-15" d="M279.01,320.03c-.68,2.66-1.36,5.32-2.05,7.98-.63-2.07-1.52-4.13-1.69-6.24-.04-.48,2.42-1.16,3.73-1.75Z"/>
  <path class="cls-18" d="M277.98,302.95c-.34-1.33-.68-2.65-1.02-3.98,0-4.32,0-8.65,0-12.97,.33,0,.66-.02,.99-.03,0,5.66,.01,11.32,.02,16.98Z"/>
  <path class="cls-26" d="M310.07,284.04c-1,1.36-1.99,2.71-2.99,4.07-2.17-3.68-.25-4.36,2.99-4.07Z"/>
  <path class="cls-26" d="M304.78,283.25c-.61,.26-1.14,.66-1.36,.53-.38-.23-.57-.78-.84-1.19,.42-.12,.86-.4,1.24-.32,.32,.07,.55,.54,.96,.98Z"/>
  <path class="cls-15" d="M294.95,342.05c-.65-1.02-1.29-2.04-1.94-3.07,.65,1.02,1.29,2.04,1.94,3.07Z"/>
  <path class="cls-15" d="M287.92,327.09c-.65-1.03-1.31-2.06-1.96-3.08,.65,1.03,1.31,2.06,1.96,3.08Z"/>
  <path class="cls-15" d="M285.93,323.09c-.64-.7-1.28-1.4-1.92-2.09,.64,.7,1.28,1.4,1.92,2.09Z"/>
  <path class="cls-15" d="M284.01,304.01c.32-.67,.65-1.35,.97-2.02-.32,.67-.65,1.35-.97,2.02Z"/>
  <path class="cls-18" d="M285.95,297.08c.02-.36,.04-.71,.06-1.07,.33,.01,.67,.02,1,.04-.36,.34-.71,.69-1.07,1.03Z"/>
  <path class="cls-26" d="M313.01,281c-.34,.66-.67,1.32-1.01,1.98,.34-.66,.67-1.32,1.01-1.98Z"/>
  <path class="cls-27" d="M447.98,299.24c-.32,1.77-.95,3.54-.92,5.3,.24,13.29,.62,26.58,.9,39.86,.04,1.81-.3,3.63-.39,5.45-.25,5.19-4.08,4.01-7.24,4.19-3.76,.21-5.2-2.12-5.24-5.22-.05-3.45,.81-6.91,.83-10.37,.1-15.49,.04-30.99,.07-46.48,0-3.75-.15-7.54,.34-11.23,.14-1.04,2.24-2.52,3.52-2.6,4.98-.31,10.02-.46,14.97,.03,1.76,.17,3.99,1.99,4.87,3.66,4.7,8.95,8.88,18.18,13.56,27.14,3.2,6.13,6.87,12.03,10.58,17.87,.28,.45,3.45,.01,3.74-.67,.88-2.07,1.33-4.46,1.36-6.73,.12-10.91,.05-21.83,.05-32.74,0-1.33-.05-2.67,.03-4,.2-3.33,1.14-5.26,5.3-4.24,6.52,1.6,6.56,1.34,5.79,8.53-.16,1.48-.05,3-.05,4.5,0,18.99-.08,37.98,.06,56.97,.03,4.01-1.09,5.77-5.37,5.62-4.96-.17-9.94,.48-14.9,.36-1.29-.03-3.11-1.3-3.72-2.49-3.22-6.32-5.98-12.88-9.17-19.22-5.64-11.23-11.46-22.37-17.21-33.54-.58,0-1.16,.01-1.74,.02Z"/>
  <path class="cls-9" d="M448.61,305.38c-.06-.38-.11-.76-.17-1.14,.26,.18,.53,.35,.79,.53-.21,.2-.41,.41-.62,.61Z"/>
  <path class="cls-7" d="M127.84,336.93c-1.26,3.33-2.99,6.58-3.68,10.03-1.3,6.49-3.58,8.39-9.94,7.3-2.89-.49-7.5,.13-8.38-1.42-2.18-3.84-2.71-8.64-3.8-13.07-1.37-5.56-2.59-11.16-3.94-16.72-1.31-5.38-3.01-10.69-3.97-16.13-.51-2.9-2-3.01-4.13-2.86-1.29,2.79-2.97,5.48-3.8,8.4-2.11,7.48-3.83,15.07-5.72,22.62-1.15,4.59-2.51,9.13-3.44,13.76-.94,4.67-3.37,6.49-8.04,5.75-1.73-.27-3.62-.25-5.33,.13-4.33,.97-6.8-.83-7.69-4.89-1.74-7.92-3.48-15.84-4.92-23.82-2.17-11.98-4-24.02-6.18-36-.43-2.38-2.02-4.53-2.63-6.9-.81-3.11,.12-5.28,3.93-5.12,2,.09,4,0,6,0,7.15,0,6.46,.16,8.02,6.93,2.35,10.22,5.77,20.19,8.77,30.26,.06,.19,.57,.25,1.43,.59,.9-2.17,2.04-4.3,2.66-6.58,2.43-8.89,4.8-17.81,6.97-26.77,.79-3.25,2.13-4.98,5.75-4.48,2.13,.29,4.32,.05,6.49,.04,10.27,0,10.43,.17,13.3,10.08,1.7,5.9,3.62,11.74,5.33,17.64,1.21,4.17,2.23,8.39,3.33,12.58l2.49-.14c1.79-10.55,3.59-21.09,5.35-31.64,1.24-7.42,5.71-10.47,12.81-8.32,.99,.3,2.2,2.52,2.02,3.65-1.08,6.85-2.74,13.61-3.83,20.45-1.24,7.83-2.07,15.72-3.14,23.57-.1,.77-.61,1.48-.94,2.22-.31,.97-.61,1.94-.92,2.91-.08,1.99-.16,3.97-.24,5.96Z"/>
  <path class="cls-28" d="M128.08,330.97c.31-.97,.61-1.94,.92-2.91-.31,.97-.61,1.94-.92,2.91Z"/>
  <path class="cls-29" d="M297.96,53.92c1.68-.98,3.36-1.96,5.04-2.94,0,.34,0,.68,0,1.02,.33,0,.67,0,1,0,.5,.02,1.01-.02,1.49,.08,10.82,2.42,11.58,2,14.36-8.11,.09-.32,.1-.66,.14-.99,1.33-.34,2.66-.68,3.99-1.02,1.67-.65,3.34-1.31,5.01-1.96,3.99-1.34,7.99-2.68,11.98-4.02,1.77,.1,3.64-.15,5.29,.36,5.71,1.76,5.68,1.86,5.74-4.29,2.66-.37,5.31-.74,7.97-1.11,.67-.32,1.34-.63,2.02-.95,2-.34,4-.67,6-1.01,2.57,1.29,5.11,2.42,7-1.01,4.66-.68,9.31-1.37,13.97-2.05,1.01-.3,2.02-.59,3.04-.89,4.99-.03,9.98-.06,14.97-.09,3.15,1.11,6.35,2.69,9.03-.92,1,0,1.99,0,2.99,0,2.06,2.1,9.54,3.32,11.74,1.87,.2-.13,.18-.61,.26-.93,5.67,.34,11.33,.69,17,1.03,1.34,.33,2.67,.65,4.01,.98,.66,0,1.33,0,1.99,.01,3.29,4.79,8.53,5.66,12,1.99,.66,.02,1.33,.03,1.99,.05,1.09,2.22,2.84,3.94-.16,6.69-1.44,1.32-.86,5.37-.31,8,.16,.76,3.39,1.08,5.24,1.22,5.16,.41,10.34,.72,15.52,.86,1.2,.03,2.42-.77,5.02-1.66-3.48-2.29-5.69-3.74-8.36-5.5,2.62,0,4.75,.44,6.6-.1,3.21-.94,4.02,.24,4.55,3.19,.85,4.75,8.44,7.69,12.31,5.3,1.33-.82,3.3-.57,4.95-.91,1.57-.32,3.1-.78,4.65-1.17,5.74,2.85,11.47,5.71,17.22,8.53,5.28,2.59,10.61,5.07,15.86,7.7,2.35,1.18,4.68,2.46,6.81,3.98,5.61,4.01,11.13,8.16,16.65,12.3,4.91,3.68,9.72,7.49,14.68,11.1,2.47,1.8,2.46,6.12,0,8.67-4.1,4.25-7.42,9.61-12.22,12.76-5.52,3.63-12.08,6.24-18.55,7.74-12.89,3-25.34,1.06-36.62-6.33-5.21-3.42-10.12-7.35-15.54-10.39-9.4-5.28-19.03-10.16-28.67-14.99-5.11-2.56-10.45-4.65-15.69-6.95,.18-.63,.31-1.29,.56-1.89,.58-1.39,1.23-2.76,1.85-4.13-1.64,.06-3.28,.16-4.93,.17-2.88,.03-5.76,0-9.71,0,3.32-2.84,5.49-4.7,7.67-6.56-.28-.33-.56-.66-.84-1-8.81-.45-17.62-.9-26.43-1.35-.01,.55-.03,1.1-.04,1.65,1.97,0,3.95,0,5.92,0,3.82,0,4.77,1.72,3,5.05-2.33-.34-4.66-.69-6.99-1.03-.67-.32-1.34-.65-2.01-.97h-.49s-.49-.02-.49-.03c-4.01-.98-8.03-1.96-12.04-2.94-.32,0-.64-.01-.96-.05-.67,0-1.34,0-2.01-.01-1.33-.02-2.66-.03-3.99-.05-1.5-3.45-3.78-2.08-6.01-.97-.66-.02-1.32-.04-1.99-.07-1.35-.29-2.69-.58-4.04-.87-4.65-.07-9.3-.15-13.95-.22,.38-3.64-1.25-4.99-4.9-4.9-7.26,.19-14.54,.09-21.81,.04-3.4-.02-5.34,1.38-5.33,4.95-6.99,.37-13.98,.73-20.97,1.1-.67,.32-1.35,.63-2.02,.95-2,.33-4,.66-6,1-1.76-3.94-3.38-1.07-5.04,.1-.62,0-1.24-.02-1.87-.03-2.01-.5-4.01-1.07-6.04-1.48-3.38-.69-6.78-1.29-10.17-1.92-.09,.62-.18,1.23-.27,1.85,2.4,.35,4.8,.69,7.65,1.11-.96,1.85-1.62,3.1-2.27,4.35-2.33,.36-4.65,.72-6.98,1.08-2.81-2.22-3.75,.31-5.02,1.99-1,.33-2,.65-2.99,.98-.17-.45-.38-1.32-.5-1.3-3.23,.36-6.45,.88-7.75-3.39-.05-.17-2.63-.06-3.51,.61-3.63,2.73-7,5.81-10.61,8.57-1.08,.83-2.63,1.04-4.7,1.81,.49-2.51,.76-3.93,1.04-5.35,4-2.66,8-5.33,12-7.99,1.08,.37,2.16,.74,3.66,1.26-.28-2.28-.45-3.73-.63-5.17,.99-.36,1.98-.72,2.97-1.08,3.46,1.92,5.81,1.63,5.98-3,0,0,0,0,0,0,1.35-.99,2.69-1.98,4.04-2.98,1.32-.68,2.65-1.36,3.97-2.04,.66-.34,1.33-.68,1.99-1.03Zm-13.98,16.02c2.75,0,4.96,.15,7.13-.09,.64-.07,1.44-1.14,1.65-1.9,.12-.45-.7-1.63-1.21-1.7-2.85-.4-5.87-.89-7.57,3.69Zm20.22-11.95c-.65-.46-1.3-.91-1.96-1.37-.93,1.31-1.86,2.62-2.8,3.93,.81,.32,2.09,1.11,2.35,.86,.98-.96,1.63-2.25,2.4-3.42Zm-8.95,5.64c.12-.28,.39-.61,.31-.81-.08-.2-.51-.26-.78-.37-.12,.28-.39,.61-.31,.81,.08,.2,.51,.26,.79,.38Z"/>
  <path class="cls-22" d="M518.01,44.97c-1.55,.4-3.09,.85-4.65,1.17-1.66,.34-3.62,.09-4.95,.91-3.86,2.39-11.45-.55-12.31-5.3-.53-2.95-1.34-4.13-4.55-3.19-1.84,.54-3.98,.1-6.6,.1,2.67,1.76,4.87,3.21,8.36,5.5-2.6,.89-3.82,1.69-5.02,1.66-5.18-.14-10.35-.45-15.52-.86-1.85-.15-5.08-.47-5.24-1.22-.55-2.63-1.13-6.68,.31-8,3-2.75,1.25-4.47,.16-6.69,17.09,4,33.98,8.63,50.02,15.93Z"/>
  <path class="cls-22" d="M438.98,71.05c1.77-3.33,.82-5.04-3-5.05-1.97,0-3.95,0-5.92,0,.01-.55,.03-1.1,.04-1.65,8.81,.45,17.62,.9,26.43,1.35,.28,.33,.56,.66,.84,1-2.17,1.86-4.35,3.72-7.67,6.56,3.94,0,6.83,.02,9.71,0,1.64-.02,3.28-.11,4.93-.17-.62,1.38-1.26,2.74-1.85,4.13-.25,.6-.38,1.26-.56,1.89-7.66-2.68-15.31-5.36-22.96-8.05Z"/>
  <path class="cls-22" d="M466,28.99c-3.47,3.66-8.71,2.79-12-1.99,2.66,.01,5.33,.02,7.99,.03,1.34,.65,2.68,1.31,4.02,1.96Z"/>
  <path class="cls-22" d="M416.97,66.08c4.01,.98,8.03,1.96,12.04,2.94-4.01-.98-8.03-1.96-12.04-2.94Z"/>
  <path class="cls-22" d="M403.99,65c2.23-1.11,4.51-2.48,6.01,.97-.67,.03-1.33,.06-2,.09-1.34-.35-2.67-.7-4.01-1.06Z"/>
  <path class="cls-22" d="M429.98,69.05c.67,.32,1.34,.65,2.01,.97-.67-.32-1.34-.65-2.01-.97Z"/>
  <path class="cls-22" d="M414,66.02c.67,0,1.34,0,2.01,.01-.67,0-1.34,0-2.01-.01Z"/>
  <path class="cls-5" d="M438.53,389.89c5.97,3.82,9.37,7.32,8.77,13.85-.56,6.08,.17,12.28-.29,18.37-.12,1.62-2.35,3.89-4,4.3-1.15,.29-4.24-2.04-4.28-3.27-.35-10.7-.2-21.42-.2-33.26Z"/>
  <path class="cls-21" d="M281,413.89h-8.72c1.19-6.42,2.32-12.52,3.44-18.61l1.4-.16c1.26,6.1,2.52,12.2,3.87,18.78Z"/>
  <path class="cls-26" d="M525.96,316.21c0-11,.1-21.99-.05-32.99-.06-4.47,1.67-6.47,6.2-6.24,13.33,.68,26.68,1.02,39.99,1.98,5.48,.4,9.19,4.41,10.44,9.49,4.06,16.51,3.52,33.4,1.5,50.01-1.47,12.1-7.51,16.22-19.55,16.48-11.32,.24-22.66-.02-33.99,.11-3.58,.04-4.59-1.55-4.56-4.86,.11-11.33,.04-22.66,.04-33.99h-.02Zm23-34.17c-.51,.89-.8,1.16-.8,1.44-.05,20.45-.1,40.89-.06,61.34,0,1,.5,2.45,1.25,2.92,5.23,3.25,13.47-1.2,13.51-7.27,.09-11.3-.81-22.7,.31-33.89,1.22-12.12-6.13-18.05-14.22-24.53Z"/>
  <path class="cls-24" d="M663,278.03c.64,.67,1.28,1.33,1.92,2,.05,1.34,.1,2.68,.14,4.02,.3,1.28,.6,2.57,.91,3.85,1.17,6.67,2.2,13.37,3.54,20,2.73,13.59,5.7,27.13,8.39,40.73,1,5.03-.27,6.35-5.32,6.36-4.49,.01-8.99-.07-13.48-.11-2.39-11.09-11.93-16.6-19-23.96-2.36-2.46-4.42,.2-4.99,2.53-1.26,5.12-2.23,10.33-3,15.55-.62,4.24-2.84,5.95-7.01,6.03-13.32,.25-13.55,.27-11.16-12.52,2.98-15.92,6.4-31.76,9.57-47.64,.81-4.05,1.42-8.13,2.11-12.21,.59-3.5,2.38-5.09,6.17-4.81,2.7,.2,5.47-.54,8.21-.86,5.33,.02,10.66,.03,16,.05,2.33,.32,4.65,.63,6.98,.95l.03,.02Zm-16.96,10.11c-.37,.29-1.02,.54-1.07,.89-1.97,11.66-3.88,23.33-5.8,34.99,2.46,.97,4.85,2.33,7.4,2.82,5.14,.99,7.71-1.92,6.85-7.11-1.21-7.28-1.88-14.68-3.65-21.82-.81-3.27,1.15-7.97-3.72-9.77Z"/>
  <path class="cls-22" d="M263.97,75.94c-.28,1.42-.55,2.84-1.04,5.35,2.06-.77,3.61-.98,4.7-1.81,3.61-2.76,6.98-5.84,10.61-8.57,.89-.67,3.46-.78,3.51-.61,1.3,4.26,4.52,3.75,7.75,3.39,.12-.01,.33,.85,.5,1.3-12.02,4.68-24.03,9.38-36.07,14.03-2.25,.87-4.58,1.54-7.67,2.57,.37-2.16,.58-3.36,.78-4.55,3.94-2.75,7.84-5.56,11.83-8.24,1.61-1.09,3.4-1.92,5.1-2.86Z"/>
  <path class="cls-22" d="M351.99,63.94c-.01-3.58,1.93-4.97,5.33-4.95,7.27,.05,14.54,.14,21.81-.04,3.65-.09,5.28,1.26,4.9,4.9-2.68,.01-5.36,.02-8.04,.04-3.32,0-6.65,0-9.97-.01-4.68,.02-9.35,.04-14.03,.07Z"/>
  <path class="cls-22" d="M304.99,70.95c.65-1.25,1.3-2.5,2.27-4.35-2.85-.41-5.25-.76-7.65-1.11,.09-.62,.18-1.23,.27-1.85,3.39,.63,6.79,1.23,10.17,1.92,2.03,.42,4.03,.98,6.04,1.48-3.7,1.3-7.4,2.6-11.1,3.9Z"/>
  <path class="cls-22" d="M317.96,67.08c1.66-1.17,3.28-4.04,5.04-.1-1.68,.03-3.36,.06-5.04,.1Z"/>
  <path class="cls-22" d="M293,74.02c1.27-1.68,2.2-4.2,5.02-1.99-1.67,.66-3.34,1.32-5.02,1.99Z"/>
  <path class="cls-15" d="M366.02,63.87c3.32,0,6.65,.01,9.97,.01-3.32,0-6.65,0-9.97-.01Z"/>
  <path class="cls-22" d="M397.97,64.06c1.35,.29,2.69,.58,4.04,.87-1.35-.29-2.69-.58-4.04-.87Z"/>
  <path class="cls-22" d="M329,65.99c.67-.32,1.35-.63,2.02-.95-.67,.32-1.35,.63-2.02,.95Z"/>
  <path class="cls-17" d="M319.99,42.99c-.05,.33-.06,.67-.14,.99-2.78,10.11-3.53,10.53-14.36,8.11-.48-.11-.99-.06-1.49-.08-.33,0-.67,0-1,0,0-.34,0-.68,0-1.02,.42-.9,.84-1.81,1.25-2.71,5.25-1.76,10.5-3.52,15.74-5.28Z"/>
  <path class="cls-11" d="M352.01,32.06c-.06,6.15-.03,6.05-5.74,4.29-1.64-.51-3.52-.26-5.29-.36,3.68-1.31,7.35-2.62,11.03-3.93Z"/>
  <path class="cls-22" d="M431,24.98c-.08,.32-.06,.8-.26,.93-2.2,1.45-9.67,.23-11.74-1.87,4,.31,8,.63,12,.94Z"/>
  <path class="cls-22" d="M416,24.04c-2.67,3.61-5.87,2.03-9.03,.92,3.01-.31,6.02-.61,9.03-.92Z"/>
  <path class="cls-22" d="M375,27.99c-1.89,3.43-4.44,2.3-7,1.01,2.33-.34,4.67-.67,7-1.01Z"/>
  <path class="cls-17" d="M329,40.01c-1.67,.65-3.34,1.31-5.01,1.96,1.67-.65,3.34-1.31,5.01-1.96Z"/>
  <path class="cls-22" d="M452.01,26.99c-1.34-.33-2.67-.65-4.01-.98,1.34,.33,2.67,.65,4.01,.98Z"/>
  <path class="cls-22" d="M392.01,25.04c-1.01,.3-2.02,.59-3.04,.89,1.01-.3,2.02-.59,3.04-.89Z"/>
  <path class="cls-11" d="M362,30.01c-.67,.32-1.34,.63-2.02,.95,.67-.32,1.34-.63,2.02-.95Z"/>
  <path class="cls-25" d="M665.97,287.9c-.3-1.29-.6-2.57-.91-3.85,.3,1.29,.6,2.57,.91,3.85Z"/>
  <path class="cls-22" d="M287.96,59.96c-.18,4.63-2.52,4.92-5.98,3,1.99-1,3.99-2,5.98-3Z"/>
  <path class="cls-22" d="M279.01,64.04c.18,1.44,.35,2.89,.63,5.17-1.51-.52-2.58-.89-3.66-1.26,1.01-1.3,2.02-2.61,3.03-3.91Z"/>
  <path class="cls-22" d="M292,56.99c-1.35,.99-2.69,1.98-4.04,2.98,1.35-.99,2.69-1.98,4.04-2.98Z"/>
  <path class="cls-22" d="M297.96,53.92c-.66,.34-1.33,.68-1.99,1.03,.66-.34,1.33-.68,1.99-1.03Z"/>
  <path class="cls-25" d="M662.97,278.01c-2.33-.32-4.65-.63-6.98-.95,2.33,.32,4.65,.63,6.98,.95Z"/>
  <path class="cls-23" d="M383.49,323.7h-13.18c2.01-11.74,3.95-23.09,5.89-34.44l1.41-.12c1.93,11.35,3.86,22.69,5.88,34.56Z"/>
  <path class="cls-22" d="M283.98,69.94c1.7-4.58,4.72-4.09,7.57-3.69,.51,.07,1.34,1.26,1.21,1.7-.21,.76-1.01,1.83-1.65,1.9-2.17,.24-4.38,.09-7.13,.09Z"/>
  <path class="cls-22" d="M304.2,57.99c-.77,1.17-1.42,2.47-2.4,3.42-.26,.25-1.54-.55-2.35-.86,.93-1.31,1.86-2.62,2.8-3.93,.65,.46,1.3,.91,1.96,1.37Z"/>
  <path class="cls-22" d="M295.25,63.63c-.28-.12-.7-.18-.78-.38-.08-.2,.19-.53,.31-.81,.28,.12,.71,.18,.78,.37,.08,.2-.19,.54-.31,.81Z"/>
  <path class="cls-22" d="M303,52c.33,0,.67,0,1,0-.33,0-.67,0-1,0Z"/>
  <path class="cls-1" d="M548.96,282.04c8.09,6.48,15.44,12.42,14.22,24.53-1.13,11.19-.23,22.59-.31,33.89-.05,6.07-8.28,10.52-13.51,7.27-.75-.47-1.25-1.92-1.25-2.92-.04-20.45,0-40.89,.06-61.34,0-.27,.29-.55,.8-1.44Z"/>
  <path class="cls-23" d="M639.17,324.02c1.92-11.67,3.83-23.33,5.8-34.99,.06-.35,.7-.59,1.07-.89,1.97,11.67,3.95,23.34,6.07,35.88h-12.94Z"/>
  <path class="cls-13" d="M639.17,324.02h12.94c-2.12-12.54-4.1-24.21-6.07-35.88,4.87,1.81,2.91,6.51,3.72,9.77,1.77,7.13,2.44,14.54,3.65,21.82,.86,5.19-1.7,8.09-6.85,7.11-2.55-.49-4.94-1.85-7.4-2.82Z"/>
</svg>